<?xml version="1.0" encoding="UTF-8"?>
<svg id="svg2" width="24" height="24" version="1.1" xmlns="http://www.w3.org/2000/svg">
 <defs id="defs4">
  <linearGradient id="linearGradient6613" x1="10" x2="10" y1="20" gradientUnits="userSpaceOnUse">
   <stop id="stop6607" stop-color="#1b547f" offset="0"/>
   <stop id="stop6609" stop-color="#2984ca" offset="1"/>
  </linearGradient>
  <linearGradient id="linearGradient6745" x1="10" x2="10" y1="15" y2="5" gradientUnits="userSpaceOnUse">
   <stop id="stop6739" offset="0"/>
   <stop id="stop6741" stop-color="#174d76" offset="1"/>
  </linearGradient>
 </defs>
 <g id="g872" transform="matrix(1.2 0 0 1.2 6e-5 -.00238)" stroke-width="0">
  <path id="path3020" d="m9.8438 0.21875-0.9375 1.4688-0.15625 0.71875c-0.5048 0.081873-1.0017 0.2322-1.4688 0.40625l-0.5-0.5625-1.5312-0.8125-0.28125 0.15625-0.09375 1.75 0.21875 0.6875c-0.40668 0.33042-0.76185 0.68883-1.0938 1.0938l-0.65625-0.21875-1.75 0.0625-0.15625 0.28125 0.8125 1.5625 0.5 0.4375c-0.18668 0.48554-0.32098 1.0043-0.40625 1.5312l-0.6875 0.125-1.4688 0.9375v0.34375l1.4688 0.9375 0.6875 0.125c0.085272 0.52697 0.21957 1.0457 0.40625 1.5312l-0.5 0.4375-0.8125 1.5625 0.15625 0.28125 1.75 0.0625 0.65625-0.21875c0.33214 0.40538 0.68668 0.76301 1.0938 1.0938l-0.21875 0.6875 0.09375 1.75 0.28125 0.15625 1.5312-0.8125 0.5-0.5625c0.46624 0.17375 0.96488 0.32435 1.4688 0.40625l0.15625 0.71875 0.9375 1.4688h0.3125l0.9375-1.4688 0.15625-0.71875c0.5098-0.08286 0.99752-0.22942 1.4688-0.40625l0.5 0.5625 1.5312 0.8125 0.28125-0.15625 0.09375-1.75-0.25-0.6875c0.41476-0.33474 0.78751-0.68184 1.125-1.0938l0.65625 0.21875 1.75-0.0625 0.15625-0.28125-0.8125-1.5625-0.53125-0.46875c0.18222-0.47856 0.35358-0.9814 0.4375-1.5l0.6875-0.125 1.4688-0.9375v-0.34375l-1.4688-0.9375-0.6875-0.125c-0.08392-0.5186-0.25528-1.0214-0.4375-1.5l0.53125-0.46875 0.8125-1.5625-0.15625-0.28125-1.75-0.0625-0.65625 0.21875c-0.33725-0.41145-0.71063-0.75932-1.125-1.0938l0.25-0.6875-0.09375-1.75-0.28125-0.15625-1.5312 0.8125-0.5 0.5625c-0.47204-0.17713-0.95801-0.32341-1.4688-0.40625l-0.15625-0.71875-0.9375-1.4688z" fill="url(#linearGradient6613)"/>
  <circle id="path3509" cx="10" cy="10" r="5" fill="url(#linearGradient6745)"/>
  <path id="path6592" d="m11 3h3l-3.42 6h2.42l-7 8 3.4-6h-2.4z" fill="#fff"/>
 </g>
</svg>
